<?xml version="1.0" encoding="utf-8"?>
<!DOCTYPE svg PUBLIC "-//W3C//DTD SVG 1.1//EN" "http://www.w3.org/Graphics/SVG/1.1/DTD/svg11.dtd">
<svg version="1.1" id="boulevard-logomark" xmlns="http://www.w3.org/2000/svg" xmlns:xlink="http://www.w3.org/1999/xlink" x="0px"
	 y="0px" viewBox="0 0 250 250.0031" enable-background="new 0 0 250 250.0031" xml:space="preserve">
<path d="M125.0016,0C56.0746,0,0,56.0746,0,125.0047c0,68.9269,56.0746,124.9984,125.0016,124.9984S250,193.9316,250,125.0047
	C250,56.0746,193.9285,0,125.0016,0z M235.6134,125.0047c0,60.9899-49.6219,110.6056-110.6118,110.6056
	c-60.9931,0-110.615-49.6156-110.615-110.6056c0-60.9931,49.6219-110.6181,110.615-110.6181
	C185.9915,14.3866,235.6134,64.0116,235.6134,125.0047z M161.9073,120.3727l-0.4479-0.2987
	c7.1655-5.9713,8.3598-13.7339,8.3598-18.2124c0-9.7033-4.9263-25.8258-37.7683-25.8258H93.984
	c-2.687,0-5.2248,0.5972-7.3147,1.9407l-0.7465,0.4477c-3.5827,2.3886-6.2698,6.4191-6.2698,11.0469v71.0583
	c0,7.6134,6.7177,13.4353,14.331,13.4353h39.7091c36.574,0,41.9482-18.3616,41.9482-29.4085
	C175.6413,133.9574,171.0135,125.4483,161.9073,120.3727z M133.6931,160.0816H95.3276c-0.8957,0-1.6421-0.8957-1.6421-1.7914
	V91.7105c0-0.8957,0.7464-1.7914,1.6421-1.7914h36.7233c23.7359,0,23.7359,8.9569,23.7359,11.9426
	c0,4.0307-1.6422,6.867-5.3742,8.8076c-4.1799,2.3886-10.4497,3.5828-18.3617,3.5828h-15.097
	c-7.464,0-13.286,6.4191-13.5847,13.8832h30.3238c9.1061,0,16.421,1.4929,21.198,4.3292c4.6277,2.6871,6.8669,6.5685,6.8669,12.0919
	C161.7579,148.7363,161.7579,160.0816,133.6931,160.0816z"/>
</svg>